<svg xmlns="http://www.w3.org/2000/svg" version="1.1" xmlns:xlink="http://www.w3.org/1999/xlink" xmlns:svgjs="http://svgjs.dev/svgjs" width="1000" height="1125" viewBox="0 0 1000 1125"><g transform="matrix(1,0,0,1,0,0)"><svg viewBox="0 0 320 360" data-background-color="#ffffff" preserveAspectRatio="xMidYMid meet" height="1125" width="1000" xmlns="http://www.w3.org/2000/svg" xmlns:xlink="http://www.w3.org/1999/xlink"><g id="tight-bounds" transform="matrix(1,0,0,1,0,0)"><svg viewBox="0 0 320 360" height="360" width="320"><g><svg></svg></g><g><svg viewBox="0 0 320 360" height="360" width="320"><g><path d="M159.823 340.15v0c-7.794 0-14.524-4.96-16.65-12.399-1.063-3.897-5.314-6.022-8.856-4.96-1.417 0.354-2.834 1.417-3.897 2.834-5.668 7.794-16.296 9.919-24.444 4.251-4.96-3.188-7.794-8.856-7.439-14.878 0-3.897-3.188-7.439-7.085-7.44-1.771 0-3.188 0.354-4.605 1.417-7.794 5.668-18.775 4.251-24.444-3.542-3.543-4.605-4.605-10.628-2.479-16.296 1.417-3.897-0.709-7.794-4.606-9.21-1.417-0.354-3.188-0.354-4.605 0-9.211 3.188-19.13-1.771-22.318-10.982-1.771-5.314-1.063-11.69 2.48-16.296 2.48-3.188 1.771-7.794-1.417-9.919-1.417-1.063-2.834-1.417-4.605-1.417-9.565 0.354-17.713-7.439-17.713-17.004 0-6.022 2.834-11.336 7.439-14.879 3.188-2.126 3.897-6.731 1.771-9.919-1.063-1.417-2.126-2.126-3.896-2.834-9.211-2.834-14.524-12.753-11.691-21.963 1.771-5.668 6.022-9.919 11.691-11.691 3.897-1.063 6.022-5.314 4.959-8.856-0.354-1.417-1.417-2.834-2.834-3.897-7.794-5.668-9.919-16.296-4.251-24.443 3.188-4.96 8.856-7.794 14.879-7.44 3.897 0 7.439-3.188 7.439-7.085 0-1.771-0.354-3.188-1.417-4.605-5.668-7.794-4.251-18.775 3.543-24.443 4.605-3.543 10.628-4.605 16.295-2.48 3.897 1.417 7.794-0.709 9.211-4.605 0.354-1.417 0.354-3.188 0-4.606-3.188-9.211 1.771-19.13 10.982-22.318 5.314-1.771 11.69-1.063 16.295 2.48 3.188 2.48 7.794 1.771 9.919-1.417 1.063-1.417 1.417-2.834 1.417-4.605-0.354-9.565 7.439-17.713 17.005-17.713 6.022 0 11.336 2.834 14.878 7.439 2.126 3.188 6.731 3.897 9.919 1.772 1.417-1.063 2.126-2.126 2.834-3.897 2.834-9.211 12.753-14.524 21.964-11.69 5.668 1.771 9.919 6.022 11.69 11.69v0c0.709 2.48 2.834 4.605 5.668 4.96 2.834 0.354 5.314-0.709 7.085-2.835 5.668-7.794 16.296-9.919 24.444-4.251 4.96 3.188 7.794 8.856 7.439 14.879 0 3.897 3.188 7.439 7.085 7.439 1.771 0 3.188-0.354 4.605-1.417 7.794-5.668 18.775-4.251 24.444 3.543 3.543 4.605 4.605 10.628 2.48 16.296-1.417 3.897 0.709 7.794 4.605 9.21 1.417 0.354 3.188 0.354 4.605 0 9.211-3.188 19.13 1.771 22.318 10.982 1.771 5.314 1.063 11.69-2.48 16.296-2.48 3.188-1.771 7.794 1.417 9.919 1.417 1.063 2.834 1.417 4.606 1.417 9.565-0.354 17.713 7.439 17.712 17.004 0 6.022-2.834 11.336-7.439 14.878-2.48 1.417-3.543 4.251-3.188 7.085 0.354 2.834 2.48 4.96 4.959 5.669 9.211 2.834 14.524 12.753 11.691 21.963-1.771 5.668-6.022 9.919-11.691 11.691-3.897 1.063-6.022 5.314-4.959 8.856 0.354 1.417 1.417 2.834 2.834 3.897 7.794 5.668 9.919 16.296 4.251 24.443-3.188 4.96-8.856 7.794-14.879 7.439-2.834 0-5.314 1.417-6.731 3.897-1.417 2.48-1.063 5.314 0.709 7.794 5.668 7.794 4.251 18.775-3.543 24.443-4.605 3.543-10.628 4.605-16.295 2.48-3.897-1.417-7.794 0.709-9.211 4.605-0.354 1.417-0.354 3.188 0 4.606 3.188 9.211-1.771 19.13-10.982 22.317-5.314 1.771-11.69 1.063-16.295-2.479-3.188-2.48-7.794-1.771-9.919 1.417-1.063 1.417-1.417 2.834-1.417 4.605 0.354 9.565-7.439 17.713-17.005 17.713-6.022 0-11.336-2.834-14.878-7.44-1.417-2.126-4.251-3.543-7.085-2.834-2.834 0.354-4.96 2.48-5.668 4.96-2.126 7.439-8.856 12.399-16.65 12.399zM136.088 312.518c1.063 0 1.771 0 2.834 0.354 6.731 1.063 12.045 5.668 13.816 12.045 1.063 3.897 5.314 6.022 8.856 4.605 2.126-0.709 3.897-2.48 4.605-4.605 2.834-9.211 12.753-14.524 21.964-11.691 3.543 1.063 7.085 3.543 9.211 6.731 2.48 3.188 6.731 3.897 10.273 1.417 1.771-1.417 2.834-3.543 2.834-5.668-0.354-9.565 7.439-17.713 17.004-17.712 3.897 0 7.794 1.063 10.982 3.542 3.188 2.48 7.794 1.771 9.919-1.417 1.417-1.771 1.771-4.605 1.063-6.731-3.188-9.211 1.417-19.13 10.627-22.318 3.897-1.417 7.794-1.417 11.691 0 3.897 1.417 7.794-0.709 9.21-4.605 0.709-2.126 0.354-4.96-1.062-6.731-5.668-7.794-4.251-18.775 3.542-24.443 3.188-2.48 7.085-3.543 10.982-3.543 3.897 0 7.085-3.188 7.439-7.085 0-2.48-1.063-4.605-3.188-6.022-7.794-5.668-9.919-16.296-4.251-24.443 2.126-3.188 5.314-5.668 9.211-6.731 3.897-1.063 6.022-5.314 4.605-8.857-0.709-2.126-2.48-3.897-4.605-4.605-9.211-2.834-14.524-12.753-11.691-21.964 1.063-3.543 3.543-7.085 6.731-9.21 3.188-2.48 3.897-7.085 1.417-10.273-1.417-1.771-3.543-2.834-5.668-2.834-9.565 0.354-17.713-7.439-17.713-17.005 0-3.897 1.063-7.794 3.543-10.981 2.48-3.188 1.771-7.794-1.417-9.92-1.771-1.417-4.605-1.771-6.731-1.062-9.211 3.188-19.13-1.417-22.318-10.628-1.417-3.897-1.417-7.794 0-11.69 1.417-3.897-0.709-7.794-4.605-9.211-2.126-0.709-4.96-0.354-6.731 1.063-7.794 5.668-18.775 4.251-24.443-3.543-2.48-3.188-3.543-7.085-3.543-10.981 0-3.897-3.188-7.085-7.439-7.085-2.126 0-4.605 1.063-5.668 2.834-5.668 7.794-16.296 9.919-24.444 4.251-3.188-2.126-5.668-5.314-6.731-9.211v0c-1.063-3.897-5.314-6.022-8.856-4.605-2.126 0.709-3.897 2.48-4.605 4.605-2.834 9.211-12.753 14.524-21.964 11.69-3.543-1.063-7.085-3.543-9.21-6.73-2.48-3.188-6.731-3.897-10.274-1.417-1.771 1.417-2.834 3.543-2.834 5.668 0.354 9.565-7.439 17.713-17.004 17.712-3.897 0-7.794-1.063-10.982-3.542-3.188-2.48-7.794-1.771-9.919 1.417-1.417 1.771-1.771 4.605-1.063 6.731 3.188 9.211-1.417 19.13-10.627 22.317-3.897 1.417-7.794 1.417-11.691 0-3.897-1.417-7.794 0.709-9.21 4.606-0.709 2.126-0.354 4.96 1.063 6.731 5.668 7.794 4.251 18.775-3.543 24.443-3.188 2.48-7.085 3.543-10.982 3.543-3.897 0-7.085 3.188-7.085 7.439 0 2.126 1.063 4.605 2.834 5.668 7.794 5.668 9.919 16.296 4.251 24.443-2.126 3.188-5.314 5.668-9.21 6.731-3.897 1.063-6.022 5.314-4.606 8.856 0.709 2.126 2.48 3.897 4.606 4.606 9.211 2.834 14.524 12.753 11.69 21.963-1.063 3.543-3.543 7.085-6.731 9.211-3.188 2.48-3.897 6.731-1.417 10.273 1.417 1.771 3.543 2.834 5.668 2.834 9.565-0.354 17.713 7.439 17.713 17.004 0 3.897-1.063 7.794-3.543 10.982-2.48 3.188-1.771 7.794 1.417 9.919 1.771 1.417 4.605 1.771 6.731 1.063 9.211-3.188 19.13 1.417 22.318 10.628 1.417 3.897 1.417 7.794 0 11.69-1.417 3.897 0.709 7.794 4.605 9.211 2.126 0.709 4.96 0.354 6.731-1.063 7.794-5.668 18.775-4.251 24.444 3.542 2.48 3.188 3.543 7.085 3.542 10.982 0 3.897 3.188 7.085 7.085 7.44 2.48 0 4.605-1.063 6.023-3.189 3.543-4.605 8.856-7.439 14.524-7.439z" fill="#7a26c1" fill-rule="nonzero" stroke="none" stroke-width="1" stroke-linecap="butt" stroke-linejoin="miter" stroke-miterlimit="10" stroke-dasharray="" stroke-dashoffset="0" font-family="none" font-weight="none" font-size="none" text-anchor="none" style="mix-blend-mode: normal" data-fill-palette-color="tertiary"></path></g><g transform="matrix(1,0,0,1,56.000000000000014,163.92517438173746)"><svg viewBox="0 0 207.99999999999997 32.149651236525045" height="32.149651236525045" width="207.99999999999997"><g><svg viewBox="0 0 207.99999999999997 32.149651236525045" height="32.149651236525045" width="207.99999999999997"><g><svg viewBox="0 0 207.99999999999997 32.149651236525045" height="32.149651236525045" width="207.99999999999997"><g><svg viewBox="0 0 207.99999999999997 32.149651236525045" height="32.149651236525045" width="207.99999999999997"><g id="textblocktransform"><svg viewBox="0 0 207.99999999999997 32.149651236525045" height="32.149651236525045" width="207.99999999999997" id="textblock"><g><svg viewBox="0 0 207.99999999999997 32.149651236525045" height="32.149651236525045" width="207.99999999999997"><g transform="matrix(1,0,0,1,0,0)"><svg width="207.99999999999997" viewBox="2 -36.25 315.37 48.75" height="32.149651236525045" data-palette-color="#7a26c1"><path d="M23.3-34.1L23.3-34.1 22.7-31.25Q18.85-32.1 16.15-32.1L16.15-32.1Q6.45-32.1 6.45-26.2L6.45-26.2Q6.45-23.95 7.88-22.75 9.3-21.55 11.48-20.78 13.65-20 16.15-19.38 18.65-18.75 20.8-17.7L20.8-17.7Q25.85-15.2 25.85-10.05 25.85-4.9 22-2.25L22-2.25Q18.7 0.05 13.3 0.05L13.3 0.05Q6.6 0.05 2-3L2-3 3.3-5.55Q4.65-4.6 7.15-3.78 9.65-2.95 12-2.95L12-2.95Q16.6-2.95 19.25-4.45L19.25-4.45Q22.45-6.3 22.45-9.75L22.45-9.75Q22.45-12.3 21.03-13.73 19.6-15.15 17.43-16.03 15.25-16.9 12.75-17.53 10.25-18.15 8.1-19.1L8.1-19.1Q3.05-21.3 3.05-25.65 3.05-30 6.05-32.55 9.05-35.1 14.55-35.1L14.55-35.1Q18.8-35.1 23.3-34.1ZM30.5-6.4L30.5-6.4Q29.6-8.8 29.6-12L29.6-12Q29.6-18.15 33.05-21.68 36.5-25.2 41.7-25.2L41.7-25.2Q49.85-25.2 52.4-18.6L52.4-18.6Q53.35-16.2 53.35-13L53.35-13Q53.35-6.85 49.9-3.33 46.45 0.2 41.25 0.2L41.25 0.2Q33.1 0.2 30.5-6.4ZM32.85-12.35Q32.85-7.75 35.22-5.23 37.6-2.7 41.35-2.7 45.1-2.7 47.6-5.38 50.1-8.05 50.1-12.65 50.1-17.25 47.75-19.78 45.4-22.3 41.62-22.3 37.85-22.3 35.35-19.63 32.85-16.95 32.85-12.35ZM63.54-3.2L63.54-3.2Q64.64-2.8 67.05-2.8 69.44-2.8 73.25-4.75L73.25-4.75 73.25-25 76.5-25.25 76.5 0 73.25 0 73.25-2.7Q69.55 0.15 65.69 0.15L65.69 0.15Q60.89 0.15 58.74-2.7L58.74-2.7Q57.64-4.1 57.64-6.6L57.64-6.6 57.64-25 60.89-25.25 60.89-7.45Q60.89-4.35 63.54-3.2ZM92.29-22.25L92.29-22.25Q89.49-22.1 86.24-20.4L86.24-20.4 86.24 0 82.99 0 82.99-25 86.24-25.25 86.24-22.45Q89.59-25 92.74-25.15L92.74-25.15Q98.04-25.15 100.04-22.5L100.04-22.5Q103.84-25 107.39-25.15L107.39-25.15Q110.44-25.15 112.09-24.4 113.74-23.65 114.82-22.28 115.89-20.9 115.89-18.4L115.89-18.4 115.89 0 112.64 0 112.64-17.55Q112.64-19.4 111.79-20.4L111.79-20.4Q110.24-22.25 107.39-22.25L107.39-22.25Q104.39-22.25 100.99-20.45L100.99-20.45Q101.24-19.45 101.24-18.4L101.24-18.4 101.24 0 97.99 0 97.99-17.55Q97.99-19.4 97.19-20.4L97.19-20.4Q95.59-22.25 92.29-22.25ZM129.39 0L120.49-25 124.14-25.25 131.59-2.35 141.19-25 144.69-25 128.09 12.5 125.04 12.5 130.54 0 129.39 0ZM148.64-19.9L147.74-22.3Q153.19-25 157.29-25.15L157.29-25.15Q160.54-25.15 162.31-24.33 164.09-23.5 165.19-22.03 166.29-20.55 166.29-17.9L166.29-17.9 166.29 0 163.04 0 163.04-1.9Q156.19 0.2 154.24 0.2L154.24 0.2Q154.14 0.2 154.09 0.2L154.09 0.2Q149.59 0.2 147.94-2.55L147.94-2.55Q147.34-3.55 147.26-4.5 147.19-5.45 147.19-6.1L147.19-6.1Q147.19-7.9 148.59-9.33 149.99-10.75 151.94-11.25L151.94-11.25Q155.24-12.1 163.04-12.75L163.04-12.75 163.04-16.8Q163.04-22.25 157.34-22.25L157.34-22.25Q153.34-22.25 148.64-19.9L148.64-19.9ZM150.24-5.7L150.24-5.7Q150.24-2.1 155.19-2.1L155.19-2.1Q159.14-2.1 163.04-3.8L163.04-3.8 163.04-10.95Q155.24-9.85 153.39-9.25L153.39-9.25Q150.24-8.25 150.24-5.7ZM168.99 12.4L167.49 10.45Q170.94 7.25 172.39 3.1L172.39 3.1Q172.94 1.55 172.94 0L172.94 0 172.94-25 176.19-25.25 176.19 0Q176.19 0.15 176.19 0.3L176.19 0.3Q176.19 4.3 173.49 7.9L173.49 7.9Q172.34 9.4 171.09 10.53 169.84 11.65 168.99 12.4L168.99 12.4ZM174.44-31.7Q173.44-31.7 172.89-32.35 172.34-33 172.34-34 172.34-35 172.94-35.63 173.54-36.25 174.54-36.25 175.54-36.25 176.14-35.63 176.74-35 176.74-33.9 176.74-32.8 176.09-32.25 175.44-31.7 174.44-31.7ZM183.03-25L186.28-25.25 186.28 0 183.03 0 183.03-25ZM184.53-31.7Q183.53-31.7 183.01-32.35 182.48-33 182.48-34 182.48-35 183.06-35.63 183.63-36.25 184.63-36.25 185.63-36.25 186.26-35.63 186.88-35 186.88-33.9 186.88-32.8 186.21-32.25 185.53-31.7 184.53-31.7ZM203.23-3.6L203.83-0.9Q202.93 0 200.58 0L200.58 0Q197.28 0 196.13-1.7L196.13-1.7Q194.18-3.55 194.18-6.7L194.18-6.7 194.18-22.1 191.38-22.1 191.83-25 194.18-25 194.18-29.95 197.43-30.25 197.43-25 203.23-25 203.23-22.1 197.43-22.1 197.43-5.9Q197.43-3 200.43-3L200.43-3Q201.73-3 203.23-3.6L203.23-3.6ZM228.33 0L224.93 0 224.93-35 232.18-35Q238.33-35 241.08-33.05L241.08-33.05Q244.28-30.8 244.28-25.35L244.28-25.35Q244.28-16.25 237.28-14.25L237.28-14.25Q235.03-13.6 232.18-13.6L232.18-13.6 228.33-13.6 228.33 0ZM231.93-32.25L228.33-32.25 228.33-16.35 231.93-16.35Q236.43-16.35 238.65-18.32 240.88-20.3 240.88-24.78 240.88-29.25 238.65-30.75 236.43-32.25 231.93-32.25L231.93-32.25ZM248.27-19.9L247.37-22.3Q252.82-25 256.92-25.15L256.92-25.15Q260.17-25.15 261.95-24.33 263.72-23.5 264.82-22.03 265.92-20.55 265.92-17.9L265.92-17.9 265.92 0 262.67 0 262.67-1.9Q255.82 0.2 253.87 0.2L253.87 0.2Q253.77 0.2 253.72 0.2L253.72 0.2Q249.22 0.2 247.57-2.55L247.57-2.55Q246.97-3.55 246.9-4.5 246.82-5.45 246.82-6.1L246.82-6.1Q246.82-7.9 248.22-9.33 249.62-10.75 251.57-11.25L251.57-11.25Q254.87-12.1 262.67-12.75L262.67-12.75 262.67-16.8Q262.67-22.25 256.97-22.25L256.97-22.25Q252.97-22.25 248.27-19.9L248.27-19.9ZM249.87-5.7L249.87-5.7Q249.87-2.1 254.82-2.1L254.82-2.1Q258.77-2.1 262.67-3.8L262.67-3.8 262.67-10.95Q254.87-9.85 253.02-9.25L253.02-9.25Q249.87-8.25 249.87-5.7ZM285.27-24.5L283.97-21.5Q283.17-21.95 282.27-21.95 281.37-21.95 281.27-21.9L281.27-21.9Q279.37-21.9 277.44-20.53 275.52-19.15 274.17-17.45L274.17-17.45 274.17 0 270.92 0 270.92-25 274.17-25.25 274.17-19.65Q276.02-22 277.32-22.95L277.32-22.95Q279.72-24.75 281.92-24.85L281.92-24.85Q282.22-24.9 283.02-24.9 283.82-24.9 285.27-24.5L285.27-24.5ZM288.82-25L292.07-25.25 292.07 0 288.82 0 288.82-25ZM290.32-31.7Q289.32-31.7 288.79-32.35 288.27-33 288.27-34 288.27-35 288.84-35.63 289.42-36.25 290.42-36.25 291.42-36.25 292.04-35.63 292.67-35 292.67-33.9 292.67-32.8 291.99-32.25 291.32-31.7 290.32-31.7ZM299.72-19.9L298.82-22.3Q304.27-25 308.37-25.15L308.37-25.15Q311.62-25.15 313.39-24.33 315.17-23.5 316.27-22.03 317.37-20.55 317.37-17.9L317.37-17.9 317.37 0 314.12 0 314.12-1.9Q307.27 0.2 305.32 0.2L305.32 0.2Q305.22 0.2 305.17 0.2L305.17 0.2Q300.67 0.2 299.02-2.55L299.02-2.55Q298.42-3.55 298.34-4.5 298.27-5.45 298.27-6.1L298.27-6.1Q298.27-7.9 299.67-9.33 301.07-10.75 303.02-11.25L303.02-11.25Q306.32-12.1 314.12-12.75L314.12-12.75 314.12-16.8Q314.12-22.25 308.42-22.25L308.42-22.25Q304.42-22.25 299.72-19.9L299.72-19.9ZM301.32-5.7L301.32-5.7Q301.32-2.1 306.27-2.1L306.27-2.1Q310.22-2.1 314.12-3.8L314.12-3.8 314.12-10.95Q306.32-9.85 304.47-9.25L304.47-9.25Q301.32-8.25 301.32-5.7Z" opacity="1" transform="matrix(1,0,0,1,0,0)" fill="#7a26c1" class="undefined-text-0" data-fill-palette-color="primary" id="text-0"></path></svg></g></svg></g></svg></g></svg></g><g></g></svg></g></svg></g></svg></g></svg></g><defs></defs></svg><rect width="320" height="360" fill="none" stroke="none" visibility="hidden"></rect></g></svg></g></svg>